<svg id="Слой_1" data-name="Слой 1" xmlns="http://www.w3.org/2000/svg" viewBox="0 0 31.3 31"><defs><style>.cls-1{fill:none;stroke:#c6c2c2;stroke-miterlimit:10;}.cls-2{fill:#d14a43;}</style></defs><title>experience</title><path class="cls-1" d="M661.3,325.6a12.8,12.8,0,1,1-21.2-4.2" transform="translate(-636.1 -312.4)"/><path class="cls-2" d="M666.9,314.2h-8.5v-1.3a.5.5,0,0,0-.5-.5h-9a.5.5,0,0,0-.5.5V316H640a.5.5,0,0,0-.5.5V326a.5.5,0,0,0,.5.5h26.9a.5.5,0,0,0,.5-.5V314.7A.5.5,0,0,0,666.9,314.2Zm-26.5,2.7h8v8.6h-8Zm9-3.6h8v12.2h-8Zm17,12.2h-8V315.2h8Z" transform="translate(-636.1 -312.4)"/><rect class="cls-2" x="7.9" y="5.6" width="1" height="3.36"/><rect class="cls-2" x="6.2" y="5.6" width="1" height="3.36"/><rect class="cls-2" x="9.6" y="5.6" width="1" height="3.36"/><rect class="cls-2" x="16.9" y="2.2" width="1" height="3.36"/><rect class="cls-2" x="25" y="4.2" width="1" height="3.36"/><rect class="cls-2" x="26.7" y="4.2" width="1" height="3.36"/></svg>