<svg id="Режим_изоляции" data-name="Режим изоляции" xmlns="http://www.w3.org/2000/svg" viewBox="0 0 230.8 270.5"><defs><style>.cls-1{fill:#d24a43;}</style></defs><title>logo-name</title><path class="cls-1" d="M125.4,110.2c-37.4,0-65.8,33.7-64.5,75.7,1.2,39.5,32.1,73.6,67,71.5-37.2-11.7-56.3-36.4-56.8-73.1s20.3-60.8,54.3-74.1Zm-11.1,37.3,39.4,35.6L124.5,212c-11.5,11.5-9.6,8.3.1,19.3,4.9,5.6,8.1,4.6,12.8-.3,13.1-13.6,26.8-26.6,40.2-39.9,2.3-2.3,4.4-4.9,6.4-7.2-13.7-14.1-26.6-27.5-39.6-40.6s-14.3-14.2-30.1,4.2ZM51.4,184c1.2-13.6,3-19.8,4.1-23.7,12.2-42.4,53.4-68.8,97.6-62.5,42.5,6.1,74.5,42.9,74.5,85.7s-32,79.6-74.6,85.6c-44.5,6.3-85.4-19.9-97.5-62.4-1-3.5-4.1-14.5-4.1-22.7Z" transform="translate(-51.4 -46.4)"/><path class="cls-1" d="M152.3,316.7c65.4-12.1,109.7-59.7,115.2-120.8,3.3-36.7-6.1-69.4-29.1-98s-52.9-44.2-88-51.5C209.5,48.1,285.7,92.1,282.1,187c-2.6,69.7-64.2,132.7-129.8,129.7Z" transform="translate(-51.4 -46.4)"/></svg>