<svg id="Режим_изоляции" data-name="Режим изоляции" xmlns="http://www.w3.org/2000/svg" viewBox="0 0 890.4 270.5"><defs><style>.cls-1{fill:#282828;}</style></defs><title>logo-footer</title><path class="cls-1" d="M125.4,110.2c-37.4,0-65.8,33.7-64.5,75.7,1.2,39.5,32.1,73.6,67,71.5-37.2-11.7-56.3-36.4-56.8-73.1s20.3-60.8,54.3-74.1Zm-11.1,37.3,39.4,35.6L124.5,212c-11.5,11.5-9.6,8.3.1,19.3,4.9,5.6,8.1,4.6,12.8-.3,13.1-13.6,26.8-26.6,40.2-39.9,2.3-2.3,4.4-4.9,6.4-7.2-13.7-14.1-26.6-27.5-39.6-40.6s-14.3-14.2-30.1,4.2ZM51.4,184c1.2-13.6,3-19.8,4.1-23.7,12.2-42.4,53.4-68.8,97.6-62.5,42.5,6.1,74.5,42.9,74.5,85.7s-32,79.6-74.6,85.6c-44.5,6.3-85.4-19.9-97.5-62.4-1-3.5-4.1-14.5-4.1-22.7Z" transform="translate(-51.4 -46.4)"/><path class="cls-1" d="M152.3,316.7c65.4-12.1,109.7-59.7,115.2-120.8,3.3-36.7-6.1-69.4-29.1-98s-52.9-44.2-88-51.5C209.5,48.1,285.7,92.1,282.1,187c-2.6,69.7-64.2,132.7-129.8,129.7Z" transform="translate(-51.4 -46.4)"/><path class="cls-1" d="M331.7,125.8h14.1L338.8,102h-.3l-6.9,23.8Zm17.5,11.9h-21l-3.7,12.9H309l21.5-66.5H347l21.5,66.5H353l-3.8-12.9Z" transform="translate(-51.4 -46.4)"/><polygon class="cls-1" points="344.5 77.6 337.4 77.6 337.4 104.2 321.9 104.2 321.9 37.7 337.4 37.7 337.4 63.8 342.6 63.8 357.3 37.7 376.5 37.7 355.9 67.8 378.2 104.2 359.4 104.2 344.5 77.6 344.5 77.6"/><path class="cls-1" d="M484.2,127.3v.3q-.5,11.7-6.9,17.9t-18.8,6.2q-12.3,0-20.1-7.6t-7.7-19.7V110.4q0-12.1,7.4-19.7t19.3-7.6q12.6,0,19.3,6.4t7.5,18v.3h-15q-.3-6.5-2.9-9.6T457.6,95a9.6,9.6,0,0,0-8.3,4.2q-3,4.2-3,11.1v14q0,6.9,3.3,11.2a10.8,10.8,0,0,0,9,4.2q5.6,0,7.9-3t2.7-9.5Z" transform="translate(-51.4 -46.4)"/><polygon class="cls-1" points="482.8 75.8 456.7 75.8 456.7 92.4 487.4 92.4 487.4 104.2 441.2 104.2 441.2 37.7 487.5 37.7 487.5 49.6 456.7 49.6 456.7 63.9 482.8 63.9 482.8 75.8 482.8 75.8"/><path class="cls-1" d="M601.3,84.1v66.5H585.9V96H569.5v17.7q0,20-5.8,28.5t-17.5,8.5h-3.8V138.7h1.8q6.3-.7,8.1-5.6t1.8-19.5V84.1Z" transform="translate(-51.4 -46.4)"/><polygon class="cls-1" points="602 75.8 575.9 75.8 575.9 92.4 606.7 92.4 606.7 104.2 560.4 104.2 560.4 37.7 606.8 37.7 606.8 49.6 575.9 49.6 575.9 63.9 602 63.9 602 75.8 602 75.8"/><path class="cls-1" d="M680.5,115.9h11.5q5,0,7.7-2.8a9.9,9.9,0,0,0,2.6-7.1,10.3,10.3,0,0,0-2.6-7.3q-2.6-2.8-7.7-2.8H680.5v20Zm0,11.9v22.8H665V84.1h27q11.8,0,18.8,6.1a20,20,0,0,1,6.9,15.8q0,9.8-6.9,15.8t-18.8,6Z" transform="translate(-51.4 -46.4)"/><path class="cls-1" d="M736.2,125.8h14.1L743.3,102h-.3l-6.9,23.8Zm17.5,11.9h-21L729,150.6H713.4l21.5-66.5h16.6L773,150.6H757.5l-3.8-12.9Z" transform="translate(-51.4 -46.4)"/><polygon class="cls-1" points="768.8 49.6 751.2 49.6 751.2 104.2 735.7 104.2 735.7 49.6 718.3 49.6 718.3 37.7 768.8 37.7 768.8 49.6 768.8 49.6"/><path class="cls-1" d="M864.7,111.3q0-7.1-3.4-11.7a11.1,11.1,0,0,0-9.5-4.6q-6.3,0-9.6,4.5T839,111.3v12.1q0,7.2,3.4,11.8a11.2,11.2,0,0,0,9.6,4.6,11,11,0,0,0,9.4-4.6q3.3-4.6,3.3-11.8V111.3Zm15.4,12.1q0,12.3-7.8,20.3t-20.4,8q-12.7,0-20.5-8t-7.9-20.3v-12q0-12.2,7.8-20.2t20.4-8q12.5,0,20.4,8t7.9,20.2v12Z" transform="translate(-51.4 -46.4)"/><path class="cls-1" d="M904.6,115.9h11.5q5,0,7.7-2.8a9.9,9.9,0,0,0,2.6-7.1,10.3,10.3,0,0,0-2.6-7.3q-2.6-2.8-7.7-2.8H904.6v20Zm0,11.9v22.8H889.1V84.1h27q11.8,0,18.8,6.1a20,20,0,0,1,6.9,15.8q0,9.8-6.9,15.8t-18.8,6Z" transform="translate(-51.4 -46.4)"/><polygon class="cls-1" points="308.9 141.9 291.4 141.9 291.4 196.6 275.9 196.6 275.9 141.9 258.5 141.9 258.5 130 308.9 130 308.9 141.9 308.9 141.9"/><path class="cls-1" d="M379.4,218.1h14.1l-6.9-23.8h-.3l-6.9,23.8ZM396.9,230h-21l-3.7,12.9H356.7l21.5-66.5h16.6l21.5,66.5H400.7L396.9,230Z" transform="translate(-51.4 -46.4)"/><polygon class="cls-1" points="392.2 169.9 385.1 169.9 385.1 196.6 369.6 196.6 369.6 130 385.1 130 385.1 156.1 390.4 156.1 405 130 424.2 130 403.6 160.1 426 196.6 407.1 196.6 392.2 169.9 392.2 169.9"/><path class="cls-1" d="M531.9,219.6v.3q-.5,11.7-6.9,17.9t-18.8,6.2q-12.3,0-20.1-7.6t-7.7-19.7V202.7q0-12.1,7.4-19.7t19.3-7.6q12.6,0,19.3,6.4t7.5,18.1v.3H517q-.3-6.5-2.9-9.6t-8.8-3.2a9.6,9.6,0,0,0-8.3,4.2q-3,4.2-3,11.1v14q0,6.9,3.3,11.2a10.8,10.8,0,0,0,9,4.3q5.6,0,7.9-3t2.7-9.5Z" transform="translate(-51.4 -46.4)"/><polygon class="cls-1" points="528.2 130 543.7 130 543.7 196.6 528.2 196.6 528.2 155.3 528 155.3 503.6 196.6 488.2 196.6 488.2 130 503.6 130 503.6 171.2 503.9 171.2 528.2 130 528.2 130"/></svg>