<svg id="Слой_1" data-name="Слой 1" xmlns="http://www.w3.org/2000/svg" viewBox="0 0 32.9 32"><defs><style>.cls-1{fill:none;stroke:#c6c2c2;stroke-linecap:round;stroke-miterlimit:10;stroke-width:1.2px;}.cls-2{fill:#d14a43;}</style></defs><title>participant</title><path class="cls-1" d="M74.8,461.5l-.9.4a12.7,12.7,0,0,0-7,10.6c-.5,8.5,8,15.3,16.2,13.1a13,13,0,0,0,9.1-14.7" transform="translate(-66.3 -454.6)"/><path class="cls-2" d="M92.3,454.6H75.6a1.4,1.4,0,0,0-1.4,1.4v10a1.4,1.4,0,0,0,1.4,1.4h1.1v3.7a.6.6,0,0,0,.4.5h.2l.4-.2,4.2-4.2h.8a.6.6,0,0,0,0-1.2H81.5l-.4.2-3.3,3.3s0-2.9,0-3a.6.6,0,0,0-.6-.5H75.6a.2.2,0,0,1-.2-.2V456a.2.2,0,0,1,.2-.2H92.3a.2.2,0,0,1,.2.2v3.9a.6.6,0,1,0,1.2,0V456A1.4,1.4,0,0,0,92.3,454.6Z" transform="translate(-66.3 -454.6)"/><path class="cls-2" d="M97.7,461.8H86a1.4,1.4,0,0,0-1.4,1.4v6.8a1.4,1.4,0,0,0,1.4,1.4h7.3l3,3,.4.2h.2a.6.6,0,0,0,.4-.5v-2.6h.4a1.4,1.4,0,0,0,1.4-1.4v-6.8A1.4,1.4,0,0,0,97.7,461.8Zm.2,8.3a.2.2,0,0,1-.2.2h-1a.6.6,0,0,0-.6.5s0,1.8,0,1.8L94,470.5H86a.2.2,0,0,1-.2-.2v-6.8a.2.2,0,0,1,.2-.2H97.7a.2.2,0,0,1,.2.2Z" transform="translate(-66.3 -454.6)"/><path class="cls-2" d="M91.9,466a.6.6,0,1,0,.6.6A.6.6,0,0,0,91.9,466Z" transform="translate(-66.3 -454.6)"/><path class="cls-2" d="M89.3,458.5H78.6a.6.6,0,1,0,0,1.2H89.3a.6.6,0,1,0,0-1.2Z" transform="translate(-66.3 -454.6)"/><path class="cls-2" d="M82.7,462.4H78.6a.6.6,0,0,0,0,1.2h4.1a.6.6,0,1,0,0-1.2Z" transform="translate(-66.3 -454.6)"/><path class="cls-2" d="M89.1,466a.6.6,0,1,0,.6.6A.6.6,0,0,0,89.1,466Z" transform="translate(-66.3 -454.6)"/><path class="cls-2" d="M94.6,466a.6.6,0,1,0,.6.6A.6.6,0,0,0,94.6,466Z" transform="translate(-66.3 -454.6)"/></svg>