<svg id="Слой_1" data-name="Слой 1" xmlns="http://www.w3.org/2000/svg" viewBox="0 0 24.9 24.3"><defs><style>.cls-1,.cls-2,.cls-3{fill:none;stroke-miterlimit:10;}.cls-1{stroke:#d14a43;}.cls-1,.cls-2{stroke-linecap:round;}.cls-2{stroke:#c6c2c2;}.cls-3{stroke:#d24a43;}.cls-4{fill:#d24a43;}</style></defs><title>prospects</title><polyline class="cls-1" points="5.8 1 5.8 17.3 24.3 17.3"/><path class="cls-2" d="M660.5,455.4a12.8,12.8,0,0,1-23.9-6.3c0-3.4,1.6-8.3,5.3-10.5" transform="translate(-636.1 -438.1)"/><line class="cls-2" x1="8.8" y1="0.8" x2="8.8" y2="15.8"/><line class="cls-2" x1="22.3" y1="14.3" x2="7.3" y2="14.3"/><line class="cls-2" x1="22.3" y1="9.3" x2="7.3" y2="9.3"/><line class="cls-2" x1="22.3" y1="4.3" x2="7.3" y2="4.3"/><line class="cls-2" x1="12.8" y1="0.8" x2="12.8" y2="15.8"/><line class="cls-2" x1="16.8" y1="0.8" x2="16.8" y2="15.8"/><line class="cls-2" x1="20.8" y1="0.8" x2="20.8" y2="15.8"/><path class="cls-3" d="M644.8,451.1s11.2,1.2,14-10.7" transform="translate(-636.1 -438.1)"/><polygon class="cls-4" points="24.6 4.8 24 5.1 22.6 2.5 20.1 4.1 19.8 3.6 22.8 1.6 24.6 4.8"/></svg>