<svg id="Слой_1" data-name="Слой 1" xmlns="http://www.w3.org/2000/svg" viewBox="0 0 27.1 30.6"><defs><style>.cls-1{fill:none;stroke:#c6c2c2;stroke-linecap:round;stroke-miterlimit:10;}.cls-2{fill:#d14a43;}</style></defs><title>recommendations</title><path class="cls-1" d="M661.1,508.9a14,14,0,0,1,.1,1.9,12.6,12.6,0,0,1-12.7,12.7,12.7,12.7,0,0,1-4-24.8" transform="translate(-635.3 -493.5)"/><path class="cls-2" d="M653.3,501.3a.8.8,0,1,0,.8.8A.8.8,0,0,0,653.3,501.3Z" transform="translate(-635.3 -493.5)"/><path class="cls-2" d="M653.3,507.8a.6.6,0,0,0-.6.6v1.7a.6.6,0,1,0,1.2,0v-1.7A.6.6,0,0,0,653.3,507.8Z" transform="translate(-635.3 -493.5)"/><path class="cls-2" d="M653.3,493.5a.6.6,0,0,0-.6.6v1.7a.6.6,0,0,0,1.2,0v-1.7A.6.6,0,0,0,653.3,493.5Z" transform="translate(-635.3 -493.5)"/><path class="cls-2" d="M653.3,511.5a.6.6,0,0,0-.6.6v1.7a.6.6,0,0,0,1.2,0v-1.7A.6.6,0,0,0,653.3,511.5Z" transform="translate(-635.3 -493.5)"/><path class="cls-2" d="M653.3,515.1a.6.6,0,0,0-.6.6v1.7a.6.6,0,0,0,1.2,0v-1.7A.6.6,0,0,0,653.3,515.1Z" transform="translate(-635.3 -493.5)"/><path class="cls-2" d="M653.3,518.7a.6.6,0,0,0-.6.6v1.7a.6.6,0,1,0,1.2,0v-1.7A.6.6,0,0,0,653.3,518.7Z" transform="translate(-635.3 -493.5)"/><path class="cls-2" d="M660.1,505.2a2.2,2.2,0,0,0-1.3.4l-2.7-2.1a3.2,3.2,0,0,0-2.3-4.5v-1.3a.6.6,0,0,0-1.2,0V499a3.2,3.2,0,0,0-2.5,3.8l-5,2.2a2.2,2.2,0,1,0-2.8,3.4l-1,4.4h0a2.2,2.2,0,0,0-2.2,2.2h0l-2,.6.5,1.1,1.8-.6a2.2,2.2,0,1,0,3-3.1l1.1-4.5a2.2,2.2,0,0,0,2.1-2.2,2.2,2.2,0,0,0,0-.3l5-2.2a3.2,3.2,0,0,0,2,1.4v1.3a.6.6,0,0,0,1.2,0v-1.3a3.2,3.2,0,0,0,1.6-.8l2.7,2.1a2.2,2.2,0,1,0,2-1.4ZM641.4,516a1,1,0,1,1,1-1A1,1,0,0,1,641.4,516Zm2.1-8.6a1,1,0,1,1,1-1A1,1,0,0,1,643.5,507.4Zm9.8-3.3a2,2,0,1,1,2-2A2,2,0,0,1,653.3,504.1Zm6.8,4.4a1,1,0,1,1,1-1A1,1,0,0,1,660.1,508.5Z" transform="translate(-635.3 -493.5)"/></svg>