<svg id="Слой_1" data-name="Слой 1" xmlns="http://www.w3.org/2000/svg" viewBox="0 0 26.5 36.2"><defs><style>.cls-1,.cls-3{fill:none;stroke-miterlimit:10;}.cls-1{stroke:#c6c2c2;}.cls-2{fill:#d14a43;}.cls-3{stroke:#d14a43;stroke-width:0.8px;}</style></defs><title>scaling</title><path class="cls-1" d="M661.3,261.1a12.8,12.8,0,1,1-16-7.6" transform="translate(-636.1 -242.7)"/><path class="cls-2" d="M652,246.5a3.8,3.8,0,1,0,3.8,3.8A3.8,3.8,0,0,0,652,246.5Zm0,6.9a3.1,3.1,0,1,1,3.1-3.1A3.1,3.1,0,0,1,652,253.4Z" transform="translate(-636.1 -242.7)"/><path class="cls-2" d="M652,248.1a2.3,2.3,0,0,0-2.3,2.3.4.4,0,0,0,.8,0,1.5,1.5,0,0,1,1.5-1.5.4.4,0,0,0,0-.8Z" transform="translate(-636.1 -242.7)"/><path class="cls-2" d="M653.4,262.4l-1.3,2.1a78.5,78.5,0,0,1-5-8.6l-.4-.8a9.5,9.5,0,0,1-1.4-4.7,6.9,6.9,0,1,1,13.7,0,7.2,7.2,0,0,1-.5,2.7l.7.3a8.1,8.1,0,0,0,.6-3,7.6,7.6,0,1,0-15.3,0,10,10,0,0,0,1.5,5l.4.8a91.3,91.3,0,0,0,5.4,9.2l.3.2.3-.2,1.5-2.4Z" transform="translate(-636.1 -242.7)"/><path class="cls-3" d="M657.1,255.7a2.4,2.4,0,1,0,2.4,2.4A2.5,2.5,0,0,0,657.1,255.7Z" transform="translate(-636.1 -242.7)"/><path class="cls-2" d="M657.3,256.9a1.5,1.5,0,0,0-1.5,1.5.2.2,0,1,0,.5,0,1,1,0,0,1,1-1,.2.2,0,0,0,0-.5Z" transform="translate(-636.1 -242.7)"/><path class="cls-3" d="M657.1,253.2a4.9,4.9,0,0,0-4.9,4.9,6.4,6.4,0,0,0,1,3.2l.3.5a58.6,58.6,0,0,0,3.5,5.9h.4a54,54,0,0,0,3.5-5.9l.3-.5a6.4,6.4,0,0,0,1-3.2A4.9,4.9,0,0,0,657.1,253.2Z" transform="translate(-636.1 -242.7)"/></svg>